# xmcd
#
# Track frame offsets: 
#        150
#        12599
#        25571
#        38168
#        50690
#        62275
#        75172
#        87581
#        97328
#        110525
#        123044
#        135949
#        150580
#        160520
#        172061
#        183459
#        195148
#        208352
#        220847
#        233637
#
# Disc length: 3276 seconds
#
# Revision: 1
# Processed by: cddbd v1.5.2PL0 Copyright (c) Steve Scherf et al.
# Submitted via: ExactAudioCopyFreeDBPlugin 1.0
#
DISCID=fb0cca14
DTITLE=Clarence Brown, Blue Lu Barker - ABC Of The Blues - VOl. 04 Cla
DTITLE=rence Brown, Blue Lu Barker
DYEAR=2010
DGENRE=Blues
TTITLE0=Clarence "Gatemouth" Brown - Midnight Hour
TTITLE1=Clarence "Gatemouth" Brown - Ain't That Dandy
TTITLE2=Clarence "Gatemouth" Brown - Dirty Work At The Crossroads
TTITLE3=Clarence "Gatemouth" Brown - Hurry Back Good News
TTITLE4=Clarence "Gatemouth" Brown - Okie Dokie Stomp
TTITLE5=Clarence "Gatemouth" Brown - Sad Hour
TTITLE6=Clarence "Gatemouth" Brown - Gate's Salty Blues
TTITLE7=Clarence "Gatemouth" Brown - Just Before Dawn
TTITLE8=Clarence "Gatemouth" Brown - Depression Blues
TTITLE9=Clarence "Gatemouth" Brown - For Now So Long
TTITLE10=Blue Lu Barker - Trombone Man Blues
TTITLE11=Blue Lu Barker - Here's A Little Girl
TTITLE12=Blue Lu Barker - A Little Bird Told Me
TTITLE13=Blue Lu Barker - What Did You Do To Me?
TTITLE14=Blue Lu Barker - Leave My Man Alone
TTITLE15=Blue Lu Barker - Now You're Down In The Alley
TTITLE16=Blue Lu Barker - When The Wagon Comes
TTITLE17=Blue Lu Barker - Loan Me Your Husband
TTITLE18=Blue Lu Barker - Bow Legged Daddy
TTITLE19=Blue Lu Barker - Love That Man
EXTD=
EXTT0=
EXTT1=
EXTT2=
EXTT3=
EXTT4=
EXTT5=
EXTT6=
EXTT7=
EXTT8=
EXTT9=
EXTT10=
EXTT11=
EXTT12=
EXTT13=
EXTT14=
EXTT15=
EXTT16=
EXTT17=
EXTT18=
EXTT19=
PLAYORDER=
